<svg xmlns="http://www.w3.org/2000/svg" width="87.979" height="80" viewBox="0 0 87.979 80">
  <g id="shopping-cart" transform="translate(-6.011 -10)">
    <g id="Group_1" data-name="Group 1" transform="translate(0 -952.362)">
      <path id="Path_2" data-name="Path 2" d="M8.011,962.362a2,2,0,0,0,0,4H18.386l10.531,49.813a2.09,2.09,0,0,0,2.094,2.188h50a2,2,0,1,0,0-4H32.636l-1.687-8H85.011a2.066,2.066,0,0,0,1.938-1.562l7-30a2.092,2.092,0,0,0-1.937-2.437H23.761l-1.781-8.437a2.063,2.063,0,0,0-1.969-1.562Zm16.594,14H89.511l-6.094,26H30.1Zm17.406,48a9,9,0,1,0,9,9A9.031,9.031,0,0,0,42.011,1024.362Zm28,0a9,9,0,1,0,9,9A9.031,9.031,0,0,0,70.011,1024.362Zm-28,4a5,5,0,1,1-5,5A4.97,4.97,0,0,1,42.011,1028.362Zm28,0a5,5,0,1,1-5,5A4.97,4.97,0,0,1,70.011,1028.362Z" fill="#fff"/>
    </g>
  </g>
</svg>
