<svg xmlns="http://www.w3.org/2000/svg" width="80.23" height="82.879" viewBox="0 0 80.23 82.879">
  <g id="user_icon" transform="translate(-20.885 -41)">
    <path id="Path_1" data-name="Path 1" d="M88.115,91.879a2,2,0,0,0,2-2A40.628,40.628,0,0,0,65.14,52.342a24.5,24.5,0,1,0-31.274.006C19.38,58.3,9.885,72.914,9.885,89.879a2,2,0,1,0,4,0c0-16.31,9.654-30.195,24.084-34.77a24.442,24.442,0,0,0,23.062,0,36.494,36.494,0,0,1,25.084,34.77A2,2,0,0,0,88.115,91.879ZM29,33.5A20.5,20.5,0,1,1,49.5,54,20.523,20.523,0,0,1,29,33.5Z" transform="translate(11 32)" fill="#8a8e9d"/>
  </g>
</svg>
